<svg viewBox="0 0 24 24"><path d="M21.913 17.635H14.71c.31 1.692 1.343 2.857 2.297 3.59h1.254c.288 0 .522.228.522.512a.517.517 0 01-.522.513H5.739a.517.517 0 01-.522-.513c0-.284.233-.513.522-.513h1.254c.953-.732 1.986-1.897 2.296-3.589H2.087C.934 17.635 0 16.717 0 15.585V3.79c0-1.133.934-2.05 2.087-2.05h19.826c1.152 0 2.087.917 2.087 2.05v11.793c0 1.133-.935 2.051-2.087 2.051zm-13.358 3.59h6.89c-.833-.863-1.573-2.04-1.805-3.59h-3.28c-.232 1.55-.973 2.727-1.805 3.59zM22.957 3.79c0-.566-.467-1.025-1.044-1.025H2.087c-.576 0-1.043.459-1.043 1.025v9.742h21.913zm0 10.767H1.044v1.025c0 .567.467 1.026 1.044 1.026h19.826c.575 0 1.043-.46 1.043-1.026z"/></svg>