<svg viewBox="0 0 37 36">
    <g stroke="none" stroke-width="1" fill="currentColor" fill-rule="evenodd">
        <path d="M17.3093367,0 C17.7626956,0 18.403392,0.0898538754 19.2445494,0.267680994 C19.5430159,0.330779101 19.7272232,0.644074993 19.6451992,0.949097752 C18.500143,5.20721699 19.9009275,7.93673601 23.9579103,9.34850543 C24.1717985,9.42293532 24.3159846,9.63122151 24.3159846,9.86576705 C24.3159846,13.1589272 24.7244503,13.9070275 27.5245622,15.252734 C27.7924877,15.3814964 27.9055358,15.7146999 27.7746283,15.9897909 C27.7885683,15.9604972 27.2075737,17.1467836 27.028626,17.5394092 C25.8229369,20.1847867 25.5407445,22.3155364 26.5821557,24.4009312 C27.2974846,25.8333559 28.6432173,27.1561313 30.7282964,28.3494881 C31.0125339,28.5121663 31.0880118,28.9014724 30.8865947,29.1659722 C27.6234338,33.4511372 22.667664,36 17.3093367,36 C7.74965399,36 0,27.9411255 0,18 C0,8.0588745 7.74965399,0 17.3093367,0 Z M17.3093367,1.09090909 C8.3290287,1.09090909 1.04905071,8.66136696 1.04905071,18 C1.04905071,27.338633 8.3290287,34.9090909 17.3093367,34.9090909 C22.1355767,34.9090909 26.6124729,32.7091366 29.6758566,28.9796653 C27.7225576,27.7684449 26.4016133,26.4064644 25.6511572,24.9036986 C24.4238881,22.446129 24.7485063,19.9950356 26.0806596,17.0721856 C26.1850489,16.843147 26.4147611,16.3671143 26.5934231,15.9994408 C23.9316276,14.6326126 23.3125015,13.4580344 23.2694317,10.2536581 C19.1302494,8.67987711 17.5081975,5.6146808 18.4930461,1.22958465 C17.9826656,1.13686789 17.5862368,1.09090909 17.3093367,1.09090909 Z M13,26 C14.1045695,26 15,26.8954305 15,28 C15,29.1045695 14.1045695,30 13,30 C11.8954305,30 11,29.1045695 11,28 C11,26.8954305 11.8954305,26 13,26 Z M13,27.0909091 C12.497923,27.0909091 12.0909091,27.497923 12.0909091,28 C12.0909091,28.502077 12.497923,28.9090909 13,28.9090909 C13.502077,28.9090909 13.9090909,28.502077 13.9090909,28 C13.9090909,27.497923 13.502077,27.0909091 13,27.0909091 Z M19,22 C20.1045695,22 21,22.8954305 21,24 C21,25.1045695 20.1045695,26 19,26 C17.8954305,26 17,25.1045695 17,24 C17,22.8954305 17.8954305,22 19,22 Z M19,23.0909091 C18.497923,23.0909091 18.0909091,23.497923 18.0909091,24 C18.0909091,24.502077 18.497923,24.9090909 19,24.9090909 C19.502077,24.9090909 19.9090909,24.502077 19.9090909,24 C19.9090909,23.497923 19.502077,23.0909091 19,23.0909091 Z M32,19 C33.1045695,19 34,19.8954305 34,21 C34,22.1045695 33.1045695,23 32,23 C30.8954305,23 30,22.1045695 30,21 C30,19.8954305 30.8954305,19 32,19 Z M11,18 C12.1045695,18 13,18.8954305 13,20 C13,21.1045695 12.1045695,22 11,22 C9.8954305,22 9,21.1045695 9,20 C9,18.8954305 9.8954305,18 11,18 Z M32,20.0909091 C31.497923,20.0909091 31.0909091,20.497923 31.0909091,21 C31.0909091,21.502077 31.497923,21.9090909 32,21.9090909 C32.502077,21.9090909 32.9090909,21.502077 32.9090909,21 C32.9090909,20.497923 32.502077,20.0909091 32,20.0909091 Z M11,19.0909091 C10.497923,19.0909091 10.0909091,19.497923 10.0909091,20 C10.0909091,20.502077 10.497923,20.9090909 11,20.9090909 C11.502077,20.9090909 11.9090909,20.502077 11.9090909,20 C11.9090909,19.497923 11.502077,19.0909091 11,19.0909091 Z M21,15 C22.1045695,15 23,15.8954305 23,17 C23,18.1045695 22.1045695,19 21,19 C19.8954305,19 19,18.1045695 19,17 C19,15.8954305 19.8954305,15 21,15 Z M12.2806172,5.04264354 C12.5466274,4.9240173 12.8510754,5.06137151 12.9606208,5.34943276 C13.0701662,5.637494 12.9433265,5.96717936 12.6773163,6.0858056 C8.09543939,8.12907634 5.04179301,12.9760432 5.04179301,18.4359235 C5.04179301,18.7474544 4.8085797,19 4.5208965,19 C4.23321331,19 4,18.7474544 4,18.4359235 C4,12.5150094 7.31163671,7.25854169 12.2806172,5.04264354 Z M21,16.0909091 C20.497923,16.0909091 20.0909091,16.497923 20.0909091,17 C20.0909091,17.502077 20.497923,17.9090909 21,17.9090909 C21.502077,17.9090909 21.9090909,17.502077 21.9090909,17 C21.9090909,16.497923 21.502077,16.0909091 21,16.0909091 Z M14,11 C15.1045695,11 16,11.8954305 16,13 C16,14.1045695 15.1045695,15 14,15 C12.8954305,15 12,14.1045695 12,13 C12,11.8954305 12.8954305,11 14,11 Z M14,12.0909091 C13.497923,12.0909091 13.0909091,12.497923 13.0909091,13 C13.0909091,13.502077 13.497923,13.9090909 14,13.9090909 C14.502077,13.9090909 14.9090909,13.502077 14.9090909,13 C14.9090909,12.497923 14.502077,12.0909091 14,12.0909091 Z M34,5 C35.1045695,5 36,5.8954305 36,7 C36,8.1045695 35.1045695,9 34,9 C32.8954305,9 32,8.1045695 32,7 C32,5.8954305 32.8954305,5 34,5 Z M34,6.09090909 C33.497923,6.09090909 33.0909091,6.49792295 33.0909091,7 C33.0909091,7.50207705 33.497923,7.90909091 34,7.90909091 C34.502077,7.90909091 34.9090909,7.50207705 34.9090909,7 C34.9090909,6.49792295 34.502077,6.09090909 34,6.09090909 Z M28,3 C29.1045695,3 30,3.8954305 30,5 C30,6.1045695 29.1045695,7 28,7 C26.8954305,7 26,6.1045695 26,5 C26,3.8954305 26.8954305,3 28,3 Z M28,4.09090909 C27.497923,4.09090909 27.0909091,4.49792295 27.0909091,5 C27.0909091,5.50207705 27.497923,5.90909091 28,5.90909091 C28.502077,5.90909091 28.9090909,5.50207705 28.9090909,5 C28.9090909,4.49792295 28.502077,4.09090909 28,4.09090909 Z"></path>
    </g>
</svg>
