<svg viewBox="0 0 24 21"><path d="M21.743 16.049h-7.147c.308 1.708 1.332 2.884 2.279 3.623h1.244a.517.517 0 1 1 0 1.036H5.695a.517.517 0 1 1 0-1.036h1.244c.946-.739 1.97-1.915 2.278-3.623H2.071A2.07 2.07 0 0 1 0 13.978V2.07A2.07 2.07 0 0 1 2.07 0h19.673a2.07 2.07 0 0 1 2.071 2.07v11.908a2.07 2.07 0 0 1-2.07 2.07zM8.49 19.672h6.836c-.826-.87-1.561-2.058-1.79-3.623h-3.256c-.23 1.565-.965 2.753-1.79 3.623zm14.29-17.601c0-.572-.464-1.036-1.036-1.036H2.071c-.572 0-1.036.464-1.036 1.036v9.836H22.78V2.071zm0 10.871H1.035v1.036c0 .571.464 1.035 1.036 1.035h19.672c.572 0 1.036-.464 1.036-1.035v-1.036z"/></svg>
