<svg viewBox="0 0 24 22">
  <path d="M20.3433415 15.8542984c-.1987167.171235-.4958493.1604485-.6816215-.0247431l-2.3905502-2.3908861c-.1382782-.1386215-.1826829-.3452867-.1135453-.5284533l2e-7-4e-7c1.0622356-2.8414959-.3806871-6.0058822-3.2228554-7.0678873-1.2396283-.46319137-2.6048363-.4634613-3.8446495-.00076093-.18322437.06906183-.38991623.02460922-.52852795-.11366843l-1.5971833-1.59745641-2e-8-1e-8c-.12227139-.12184517-.12259388-.31971722-.00071985-.44195978.03444791-.03455215.0765083-.06056168.12281487-.07594641l7.1e-7-2.3e-7c1.26351223-.41183864 2.58457204-.61983788 3.91353654-.61622634 7.3346937 0 10.9774916 5.83277777 11.8845037 7.53450524l1e-7 1e-7c.1539406.287957.1539406.633739-1e-7.921694l6e-7-.000001c-.9078721 1.6669971-2.107232 3.1578231-3.5411972 4.4017777l-.0000064.0000127zM2.71482769.2926197L22.7101927 20.2931658c.3906147.3903156.3907827 1.0233108.000375 1.4138324-.3904077.3905226-1.0235523.3906905-1.414166.0003749L1.30103672 1.70687698l-5e-8-6e-8C.91040798 1.31656131.91022899.68355609 1.30063679.29301953c.3904077-.39053655 1.02356226-.3907155 1.41419095-.00039978l-5e-8-4e-8zm1.62198227 5.86242208l2.4018497 2.4023329v1e-8c.13791524.13831159.18246038.34434238.11399524.52725358l-2.4e-7 6.5e-7c-1.05541593 2.84456508.39551648 6.00593218 3.24074964 7.06108918 1.2322136.4569726 2.587447.4572556 3.8198555.0007972.1829509-.06842.3890108-.0238227.527278.1141183l1.5925835 1.5929576c.1222644.1218522.1225759.3197242.0006949.4419598-.0344551.0345555-.0765248.0605652-.1228398.0759464-1.2627273.4112813-2.5828872.6190081-3.9109367.6154259-7.3346937 0-10.97749157-5.8327271-11.8845037-7.5344046l7e-8 1e-7c-.15404807-.28793-.15404807-.633764-1.3e-7-.921694l5e-7-9e-7c.90734711-1.6664473 2.10608205-3.15683343 3.5393522-4.40047809.1987847-.17133592.49605379-.16057191.68192153.02469229l-2.1e-7.00000368z"/>
</svg>
