<svg width="24" height="24" version="1.1" viewBox="0 0 24 24" xmlns="http://www.w3.org/2000/svg">
 <path d="m13.846 7.4369c1.0196 0 1.8462 0.82655 1.8462 1.8462v7.3846c0 1.0196-0.82655 1.8462-1.8462 1.8462h-9.7497l-4.0964 3.5876v-12.818c0-1.0196 0.82655-1.8462 1.8462-1.8462zm0 0.92308h-12c-0.2549 0-0.48567 0.10332-0.65271 0.27036-0.1392 0.1392-0.23415 0.32266-0.26194 0.52746l-0.008427 0.12526v10.749l2.7642-2.4416h10.159c0.2549 0 0.48567-0.10332 0.65271-0.27036 0.1392-0.1392 0.23415-0.32266 0.26194-0.52746l0.0084-0.12526v-7.3846c0-0.2549-0.10332-0.48567-0.27036-0.65272-0.16701-0.16704-0.39778-0.27036-0.65268-0.27036zm8.3077-6.4615c0.97326 0 1.7706 0.75312 1.8411 1.7084l0.005064 0.13778v11.904l-4.0964-2.6735-3.2882-9.23e-4v-0.92308l3.6974 9.23e-4 2.7642 1.8462v-10.154l-0.0084-0.12526c-0.027809-0.2048-0.12276-0.38825-0.26196-0.52746-0.1392-0.1392-0.32266-0.23415-0.52746-0.26194l-0.12526-0.00842h-12c-0.2549 0-0.48567 0.10332-0.65271 0.27036-0.1392 0.1392-0.23415 0.32266-0.26194 0.52746l-0.00843 0.12525v2.7692h-0.92307v-2.7692c0-0.97326 0.75312-1.7706 1.7084-1.8411l0.13778-0.00506zm-9.6923 12c0.2549 0 0.46154 0.20664 0.46154 0.46154 0 0.2549-0.20664 0.46154-0.46154 0.46154h-9.2308c-0.2549 0-0.46154-0.20664-0.46154-0.46154 0-0.2549 0.20664-0.46154 0.46154-0.46154zm0-2.7692c0.2549 0 0.46154 0.20664 0.46154 0.46154s-0.20664 0.46154-0.46154 0.46154h-9.2308c-0.2549 0-0.46154-0.20664-0.46154-0.46154s0.20664-0.46154 0.46154-0.46154zm8.3077-2.7692c0.2549 0 0.46154 0.20664 0.46154 0.46154s-0.20664 0.46154-0.46154 0.46154h-4.1538v-0.92308zm0-2.7692c0.2549 0 0.46154 0.20664 0.46154 0.46154s-0.20664 0.46154-0.46154 0.46154h-9.2308c-0.2549 0-0.46154-0.20664-0.46154-0.46154s0.20664-0.46154 0.46154-0.46154z" stroke-width=".92308"/>
</svg>
