<svg viewBox="0 0 36 36">
    <g class="icon-state-normal">
        <path d="M18,0 C27.9411529,0 36,8.05884706 36,18 C36,27.9411529 27.9411529,36 18,36 C8.05884706,36 3.6e-15,27.9411529 3.6e-15,18 C3.6e-15,8.05884706 8.05884706,0 18,0 Z M18,34.92 C27.3446824,34.92 34.92,27.3446824 34.92,18 C34.92,8.65531765 27.3446824,1.08 18,1.08 C8.65531765,1.08 1.08,8.65531765 1.08,18 C1.08,27.3446824 8.65531765,34.92 18,34.92 Z M22.4403361,15.7598655 C23.1596639,15.7598655 23.7445378,16.3066891 23.7445378,16.9786891 L23.7445378,24.1598655 C23.7445378,24.8384538 23.1596639,25.3852773 22.4403361,25.3852773 L11.6033613,25.3852773 C10.8840336,25.3852773 10.2991597,24.8318655 10.2991597,24.1598655 L10.2991597,16.9852773 C10.2991597,16.3066891 10.8840336,15.7598655 11.6033613,15.7598655 L22.4403361,15.7598655 Z M22.8369748,24.1532773 L22.8369748,16.9786891 C22.8369748,16.7942185 22.6621849,16.6426891 22.4403361,16.6426891 L11.6033613,16.6426891 C11.3882353,16.6426891 11.2067227,16.7942185 11.2067227,16.9786891 L11.2067227,24.1532773 C11.2067227,24.3311597 11.3815126,24.4826891 11.6033613,24.4826891 L22.4403361,24.4826891 C22.6621849,24.4826891 22.8369748,24.3377479 22.8369748,24.1532773 Z M21.0554622,21.8803361 C21.5058824,21.8803361 21.8621849,22.2361008 21.8621849,22.6709244 L21.8621849,22.6906891 C21.8621849,23.1255126 21.5058824,23.4812773 21.0554622,23.4812773 C20.605042,23.4812773 20.2487395,23.1255126 20.2487395,22.6906891 L20.2487395,22.6709244 C20.2487395,22.2361008 20.6117647,21.8803361 21.0554622,21.8803361 Z M11.2067227,17.9669244 L22.8369748,17.9669244 L22.8369748,20.1015126 L11.2067227,20.1015126 L11.2067227,17.9669244 Z M26.3529412,17.143395 C26.5546218,17.789042 26.1579832,18.4808067 25.4453782,18.685042 L24.5579832,18.9485714 C24.4840336,18.9749244 24.4033613,18.9156303 24.4033613,18.8365714 L24.4033613,18.151395 C24.4033613,18.0986891 24.4369748,18.0525714 24.4907563,18.039395 L25.189916,17.8351597 C25.3983193,17.7758655 25.5260504,17.5782185 25.4722689,17.4069244 L23.3478992,10.5419832 C23.2941176,10.3706891 23.0789916,10.2784538 22.8705882,10.3377479 L12.5042017,13.421042 C12.2957983,13.4869244 12.1680672,13.6779832 12.2218487,13.8558655 L12.5781513,15.0088067 C12.605042,15.0812773 12.5445378,15.1603361 12.4638655,15.1603361 L11.7781513,15.1603361 C11.7243697,15.1603361 11.6705882,15.127395 11.6571429,15.0746891 L11.3613445,14.1128067 C11.1596639,13.4671597 11.5563025,12.775395 12.2487395,12.5711597 L22.6151261,9.48786555 C23.307563,9.28363025 24.0268908,9.63939496 24.2285714,10.285042 L26.3529412,17.143395 Z M21.6672269,14.5805714 C21.3512605,14.6728067 21.0285714,14.4949244 20.9344538,14.1852773 L20.6386555,13.1838655 C20.5512605,12.8742185 20.7327731,12.551395 21.0420168,12.4657479 L22.0638655,12.1758655 C22.3798319,12.0902185 22.7092437,12.2681008 22.7966387,12.5711597 L23.092437,13.5725714 C23.1798319,13.8822185 22.9983193,14.205042 22.6890756,14.2906891 L21.6672269,14.5805714 Z"/>
    </g>
    <g class="icon-state-hover">
        <path d="M11.207 20.102h11.63v4.051c0 .185-.175.33-.397.33H11.603c-.221 0-.396-.152-.396-.33v-4.051zm0-2.135v-.988c0-.185.181-.336.396-.336H22.44c.222 0 .397.151.397.336v.988h-11.63zM18 0c9.941 0 18 8.059 18 18s-8.059 18-18 18S0 27.941 0 18 8.059 0 18 0zm4.44 15.76H11.603c-.719 0-1.304.547-1.304 1.225v7.175c0 .672.585 1.225 1.304 1.225H22.44c.72 0 1.305-.547 1.305-1.225v-7.181c0-.672-.585-1.22-1.305-1.22zm-1.385 6.12a.801.801 0 0 0-.806.79v.02c0 .436.356.791.806.791.45 0 .807-.355.807-.79v-.02a.797.797 0 0 0-.807-.79zm5.298-4.737l-2.124-6.858c-.202-.646-.921-1.001-1.614-.797L12.25 12.57c-.693.204-1.09.896-.888 1.542l.296.962c.014.052.067.085.121.085h.686c.08 0 .141-.079.114-.151l-.356-1.153c-.054-.178.074-.37.282-.435l10.367-3.083c.208-.06.423.033.477.204l2.124 6.865c.054.171-.074.369-.282.428l-.7.204a.113.113 0 0 0-.087.112v.686c0 .079.081.138.155.112l.887-.264c.713-.204 1.11-.896.908-1.542zm-4.686-2.562l1.022-.29a.582.582 0 0 0 .403-.718l-.295-1.002a.597.597 0 0 0-.733-.395l-1.022.29a.582.582 0 0 0-.403.718l.295 1.001a.59.59 0 0 0 .733.396z"/>
    </g>
</svg>
