<svg viewBox="0 0 24 22"><path d="M20.343 15.854a.502.502 0 01-.681-.024l-2.39-2.391a.499.499 0 01-.114-.529 5.492 5.492 0 00-7.068-7.068.5.5 0 01-.528-.114L7.964 4.13a.312.312 0 01.123-.517A12.519 12.519 0 0112 2.996c7.335 0 10.978 5.833 11.885 7.535a.977.977 0 010 .922 15.885 15.885 0 01-3.542 4.401zM2.715.293l19.995 20a1 1 0 11-1.414 1.414l-19.995-20A1 1 0 112.715.293zm1.622 5.862l2.402 2.402a.499.499 0 01.114.528 5.493 5.493 0 007.06 7.062.5.5 0 01.528.114l1.592 1.593a.312.312 0 01-.122.517 12.52 12.52 0 01-3.911.616c-7.335 0-10.977-5.833-11.884-7.534a.977.977 0 010-.922 15.88 15.88 0 013.539-4.4.502.502 0 01.682.024z"/></svg>