<svg viewBox="0 0 32 32"><path d="M15.5 10.12a.565.565 0 01-.556-.56c0-.301.249-.56.556-.56h1.002c.297 0 .556.25.556.56 0 .3-.249.56-.556.56h4.99a.56.56 0 010 1.12h-11.01a.56.56 0 010-1.12H15.5zm-4.382 3.582l1.416 8.03h6.932l1.416-8.03h-9.764zm-.705-1.116a.532.532 0 01.07-.005h11.01c.02 0 .04.001.059.003a.565.565 0 01.55.656l-1.611 9.133a.565.565 0 01-.479.456.53.53 0 01-.152.023h-7.718a.53.53 0 01-.15-.022.565.565 0 01-.483-.457L9.9 13.24a.565.565 0 01.514-.654zM16 0c8.837 0 16 7.163 16 16s-7.163 16-16 16S0 24.837 0 16 7.163 0 16 0zm0 31.04c8.306 0 15.04-6.734 15.04-15.04S24.306.96 16 .96.96 7.694.96 16 7.694 31.04 16 31.04zm.561-15.407v4.285c0 .297-.25.558-.56.558-.3 0-.56-.25-.56-.558v-4.285c0-.297.25-.558.56-.558.3 0 .56.25.56.558zm1.983 0v4.285c0 .297-.25.558-.56.558-.3 0-.56-.25-.56-.558v-4.285c0-.297.25-.558.56-.558.3 0 .56.25.56.558zm-3.966 0v4.285c0 .297-.25.558-.56.558-.3 0-.56-.25-.56-.558v-4.285c0-.297.25-.558.56-.558.3 0 .56.25.56.558z"/></svg>