<svg viewBox="0 0 32 32"><path d="M13.188 21.981l-3.425.89a.579.579 0 01-.683-.363.562.562 0 01-.054-.456l1.043-3.318a.556.556 0 01.146-.348.572.572 0 01.097-.097l8.597-8.596a.565.565 0 01.79 0 .58.58 0 01.117.093l2.451 2.496a.563.563 0 01.1.87L13.69 21.83a.56.56 0 01-.5.15zm-1.083-.876l-1.218-1.238-.532 1.692 1.75-.454zm1.152-.427l6.228-6.229-1.857-1.891-6.23 6.23 1.859 1.89zm7.02-7.02l.893-.894-1.857-1.891-.893.892 1.857 1.892zM16 0c8.837 0 16 7.163 16 16s-7.163 16-16 16S0 24.837 0 16 7.163 0 16 0zm0 31.04c8.306 0 15.04-6.734 15.04-15.04S24.306.96 16 .96.96 7.694.96 16 7.694 31.04 16 31.04z"/></svg>